<mxfile host="app.diagrams.net" modified="2022-04-02T10:25:19.358Z" agent="5.0 (Macintosh; Intel Mac OS X 10_15_7) AppleWebKit/537.36 (KHTML, like Gecko) Chrome/99.0.4844.84 Safari/537.36" etag="VHmuHyjFm0njbhBh4-0V" version="14.9.6" type="github">
  <diagram id="C5RBs43oDa-KdzZeNtuy" name="Page-1">
    <mxGraphModel dx="1426" dy="769" grid="1" gridSize="10" guides="1" tooltips="1" connect="1" arrows="1" fold="1" page="1" pageScale="1" pageWidth="827" pageHeight="1169" math="0" shadow="0">
      <root>
        <mxCell id="WIyWlLk6GJQsqaUBKTNV-0" />
        <mxCell id="WIyWlLk6GJQsqaUBKTNV-1" parent="WIyWlLk6GJQsqaUBKTNV-0" />
        <mxCell id="XQnneST7vK9ARWgy74ii-30" value="" style="group" vertex="1" connectable="0" parent="WIyWlLk6GJQsqaUBKTNV-1">
          <mxGeometry x="70" y="230" width="460" height="90" as="geometry" />
        </mxCell>
        <mxCell id="XQnneST7vK9ARWgy74ii-6" value="TemplateManagement&lt;br&gt;Page" style="html=1;dropTarget=0;" vertex="1" parent="XQnneST7vK9ARWgy74ii-30">
          <mxGeometry width="180" height="90" as="geometry" />
        </mxCell>
        <mxCell id="XQnneST7vK9ARWgy74ii-8" value="TemplateListTable" style="html=1;dropTarget=0;" vertex="1" parent="XQnneST7vK9ARWgy74ii-30">
          <mxGeometry x="280" width="180" height="90" as="geometry" />
        </mxCell>
        <mxCell id="XQnneST7vK9ARWgy74ii-29" value="" style="endArrow=open;html=1;endSize=12;startArrow=diamondThin;startSize=14;startFill=1;edgeStyle=orthogonalEdgeStyle;align=left;verticalAlign=bottom;exitX=1;exitY=0.5;exitDx=0;exitDy=0;" edge="1" parent="XQnneST7vK9ARWgy74ii-30" source="XQnneST7vK9ARWgy74ii-6">
          <mxGeometry x="-1" y="3" relative="1" as="geometry">
            <mxPoint x="260" y="90" as="sourcePoint" />
            <mxPoint x="280" y="45" as="targetPoint" />
          </mxGeometry>
        </mxCell>
        <mxCell id="XQnneST7vK9ARWgy74ii-31" value="" style="group" vertex="1" connectable="0" parent="WIyWlLk6GJQsqaUBKTNV-1">
          <mxGeometry x="70" y="420" width="460" height="400" as="geometry" />
        </mxCell>
        <mxCell id="XQnneST7vK9ARWgy74ii-10" value="TemplateEdit/ViewPage" style="html=1;dropTarget=0;" vertex="1" parent="XQnneST7vK9ARWgy74ii-31">
          <mxGeometry y="150" width="180" height="90" as="geometry" />
        </mxCell>
        <mxCell id="XQnneST7vK9ARWgy74ii-14" value="BasicSetting" style="html=1;dropTarget=0;" vertex="1" parent="XQnneST7vK9ARWgy74ii-31">
          <mxGeometry x="280" width="180" height="90" as="geometry" />
        </mxCell>
        <mxCell id="XQnneST7vK9ARWgy74ii-24" style="edgeStyle=orthogonalEdgeStyle;rounded=0;orthogonalLoop=1;jettySize=auto;html=1;exitX=1;exitY=0.5;exitDx=0;exitDy=0;entryX=0;entryY=0.5;entryDx=0;entryDy=0;startArrow=diamond;startFill=1;" edge="1" parent="XQnneST7vK9ARWgy74ii-31" source="XQnneST7vK9ARWgy74ii-10" target="XQnneST7vK9ARWgy74ii-14">
          <mxGeometry relative="1" as="geometry" />
        </mxCell>
        <mxCell id="XQnneST7vK9ARWgy74ii-16" value="DataSetting" style="html=1;dropTarget=0;" vertex="1" parent="XQnneST7vK9ARWgy74ii-31">
          <mxGeometry x="280" y="100" width="180" height="90" as="geometry" />
        </mxCell>
        <mxCell id="XQnneST7vK9ARWgy74ii-26" style="edgeStyle=orthogonalEdgeStyle;rounded=0;orthogonalLoop=1;jettySize=auto;html=1;exitX=1;exitY=0.5;exitDx=0;exitDy=0;startArrow=diamond;startFill=1;" edge="1" parent="XQnneST7vK9ARWgy74ii-31" source="XQnneST7vK9ARWgy74ii-10" target="XQnneST7vK9ARWgy74ii-16">
          <mxGeometry relative="1" as="geometry" />
        </mxCell>
        <mxCell id="XQnneST7vK9ARWgy74ii-18" value="AnnotationSetting" style="html=1;dropTarget=0;" vertex="1" parent="XQnneST7vK9ARWgy74ii-31">
          <mxGeometry x="280" y="200" width="180" height="90" as="geometry" />
        </mxCell>
        <mxCell id="XQnneST7vK9ARWgy74ii-27" style="edgeStyle=orthogonalEdgeStyle;rounded=0;orthogonalLoop=1;jettySize=auto;html=1;exitX=1;exitY=0.5;exitDx=0;exitDy=0;startArrow=diamond;startFill=1;" edge="1" parent="XQnneST7vK9ARWgy74ii-31" source="XQnneST7vK9ARWgy74ii-10" target="XQnneST7vK9ARWgy74ii-18">
          <mxGeometry relative="1" as="geometry" />
        </mxCell>
        <mxCell id="XQnneST7vK9ARWgy74ii-20" value="ValidationSetting" style="html=1;dropTarget=0;" vertex="1" parent="XQnneST7vK9ARWgy74ii-31">
          <mxGeometry x="280" y="310" width="180" height="90" as="geometry" />
        </mxCell>
        <mxCell id="XQnneST7vK9ARWgy74ii-28" style="edgeStyle=orthogonalEdgeStyle;rounded=0;orthogonalLoop=1;jettySize=auto;html=1;exitX=1;exitY=0.5;exitDx=0;exitDy=0;entryX=0;entryY=0.5;entryDx=0;entryDy=0;startArrow=diamond;startFill=1;" edge="1" parent="XQnneST7vK9ARWgy74ii-31" source="XQnneST7vK9ARWgy74ii-10" target="XQnneST7vK9ARWgy74ii-20">
          <mxGeometry relative="1" as="geometry" />
        </mxCell>
        <mxCell id="XQnneST7vK9ARWgy74ii-36" value="" style="group" vertex="1" connectable="0" parent="WIyWlLk6GJQsqaUBKTNV-1">
          <mxGeometry x="70" y="890" width="460" height="90" as="geometry" />
        </mxCell>
        <mxCell id="XQnneST7vK9ARWgy74ii-37" value="TaskManagementPage" style="html=1;dropTarget=0;" vertex="1" parent="XQnneST7vK9ARWgy74ii-36">
          <mxGeometry width="180" height="90" as="geometry" />
        </mxCell>
        <mxCell id="XQnneST7vK9ARWgy74ii-38" value="TaskListTable" style="html=1;dropTarget=0;" vertex="1" parent="XQnneST7vK9ARWgy74ii-36">
          <mxGeometry x="280" width="180" height="90" as="geometry" />
        </mxCell>
        <mxCell id="XQnneST7vK9ARWgy74ii-39" value="" style="endArrow=open;html=1;endSize=12;startArrow=diamondThin;startSize=14;startFill=1;edgeStyle=orthogonalEdgeStyle;align=left;verticalAlign=bottom;exitX=1;exitY=0.5;exitDx=0;exitDy=0;" edge="1" parent="XQnneST7vK9ARWgy74ii-36" source="XQnneST7vK9ARWgy74ii-37">
          <mxGeometry x="-1" y="3" relative="1" as="geometry">
            <mxPoint x="260" y="90" as="sourcePoint" />
            <mxPoint x="280" y="45" as="targetPoint" />
          </mxGeometry>
        </mxCell>
        <mxCell id="XQnneST7vK9ARWgy74ii-40" value="" style="group" vertex="1" connectable="0" parent="WIyWlLk6GJQsqaUBKTNV-1">
          <mxGeometry x="70" y="1035" width="460" height="90" as="geometry" />
        </mxCell>
        <mxCell id="XQnneST7vK9ARWgy74ii-41" value="MyTagPage" style="html=1;dropTarget=0;" vertex="1" parent="XQnneST7vK9ARWgy74ii-40">
          <mxGeometry width="180" height="90" as="geometry" />
        </mxCell>
        <mxCell id="XQnneST7vK9ARWgy74ii-42" value="&amp;nbsp;MyTagListTable" style="html=1;dropTarget=0;" vertex="1" parent="XQnneST7vK9ARWgy74ii-40">
          <mxGeometry x="280" width="180" height="90" as="geometry" />
        </mxCell>
        <mxCell id="XQnneST7vK9ARWgy74ii-43" value="" style="endArrow=open;html=1;endSize=12;startArrow=diamondThin;startSize=14;startFill=1;edgeStyle=orthogonalEdgeStyle;align=left;verticalAlign=bottom;exitX=1;exitY=0.5;exitDx=0;exitDy=0;" edge="1" parent="XQnneST7vK9ARWgy74ii-40" source="XQnneST7vK9ARWgy74ii-41">
          <mxGeometry x="-1" y="3" relative="1" as="geometry">
            <mxPoint x="260" y="90" as="sourcePoint" />
            <mxPoint x="280" y="45" as="targetPoint" />
          </mxGeometry>
        </mxCell>
        <mxCell id="XQnneST7vK9ARWgy74ii-44" value="" style="group" vertex="1" connectable="0" parent="WIyWlLk6GJQsqaUBKTNV-1">
          <mxGeometry x="70" y="1200" width="460" height="90" as="geometry" />
        </mxCell>
        <mxCell id="XQnneST7vK9ARWgy74ii-45" value="MyValidationPage" style="html=1;dropTarget=0;" vertex="1" parent="XQnneST7vK9ARWgy74ii-44">
          <mxGeometry width="180" height="90" as="geometry" />
        </mxCell>
        <mxCell id="XQnneST7vK9ARWgy74ii-46" value="MyValidationListTable" style="html=1;dropTarget=0;" vertex="1" parent="XQnneST7vK9ARWgy74ii-44">
          <mxGeometry x="280" width="180" height="90" as="geometry" />
        </mxCell>
        <mxCell id="XQnneST7vK9ARWgy74ii-47" value="" style="endArrow=open;html=1;endSize=12;startArrow=diamondThin;startSize=14;startFill=1;edgeStyle=orthogonalEdgeStyle;align=left;verticalAlign=bottom;exitX=1;exitY=0.5;exitDx=0;exitDy=0;" edge="1" parent="XQnneST7vK9ARWgy74ii-44" source="XQnneST7vK9ARWgy74ii-45">
          <mxGeometry x="-1" y="3" relative="1" as="geometry">
            <mxPoint x="260" y="90" as="sourcePoint" />
            <mxPoint x="280" y="45" as="targetPoint" />
          </mxGeometry>
        </mxCell>
        <mxCell id="XQnneST7vK9ARWgy74ii-54" style="edgeStyle=orthogonalEdgeStyle;rounded=0;orthogonalLoop=1;jettySize=auto;html=1;exitX=1;exitY=0.5;exitDx=0;exitDy=0;entryX=0;entryY=0.5;entryDx=0;entryDy=0;startArrow=diamond;startFill=1;" edge="1" parent="WIyWlLk6GJQsqaUBKTNV-1" source="XQnneST7vK9ARWgy74ii-48" target="XQnneST7vK9ARWgy74ii-51">
          <mxGeometry relative="1" as="geometry" />
        </mxCell>
        <mxCell id="XQnneST7vK9ARWgy74ii-55" style="edgeStyle=orthogonalEdgeStyle;rounded=0;orthogonalLoop=1;jettySize=auto;html=1;exitX=1;exitY=0.5;exitDx=0;exitDy=0;startArrow=diamond;startFill=1;" edge="1" parent="WIyWlLk6GJQsqaUBKTNV-1" source="XQnneST7vK9ARWgy74ii-48" target="XQnneST7vK9ARWgy74ii-50">
          <mxGeometry relative="1" as="geometry" />
        </mxCell>
        <mxCell id="XQnneST7vK9ARWgy74ii-56" style="edgeStyle=orthogonalEdgeStyle;rounded=0;orthogonalLoop=1;jettySize=auto;html=1;exitX=1;exitY=0.5;exitDx=0;exitDy=0;entryX=0;entryY=0.5;entryDx=0;entryDy=0;startArrow=diamond;startFill=1;" edge="1" parent="WIyWlLk6GJQsqaUBKTNV-1" source="XQnneST7vK9ARWgy74ii-48" target="XQnneST7vK9ARWgy74ii-49">
          <mxGeometry relative="1" as="geometry" />
        </mxCell>
        <mxCell id="XQnneST7vK9ARWgy74ii-57" style="edgeStyle=orthogonalEdgeStyle;rounded=0;orthogonalLoop=1;jettySize=auto;html=1;exitX=1;exitY=0.5;exitDx=0;exitDy=0;entryX=0;entryY=0.5;entryDx=0;entryDy=0;startArrow=diamond;startFill=1;" edge="1" parent="WIyWlLk6GJQsqaUBKTNV-1" source="XQnneST7vK9ARWgy74ii-48" target="XQnneST7vK9ARWgy74ii-52">
          <mxGeometry relative="1" as="geometry" />
        </mxCell>
        <mxCell id="XQnneST7vK9ARWgy74ii-48" value="PerformancePage" style="html=1;dropTarget=0;" vertex="1" parent="WIyWlLk6GJQsqaUBKTNV-1">
          <mxGeometry x="80" y="1590" width="180" height="90" as="geometry" />
        </mxCell>
        <mxCell id="XQnneST7vK9ARWgy74ii-49" value="Accuracy of Repeat Task" style="html=1;dropTarget=0;" vertex="1" parent="WIyWlLk6GJQsqaUBKTNV-1">
          <mxGeometry x="350" y="1664" width="180" height="90" as="geometry" />
        </mxCell>
        <mxCell id="XQnneST7vK9ARWgy74ii-50" value="Accuracy" style="html=1;dropTarget=0;" vertex="1" parent="WIyWlLk6GJQsqaUBKTNV-1">
          <mxGeometry x="350" y="1530" width="180" height="90" as="geometry" />
        </mxCell>
        <mxCell id="XQnneST7vK9ARWgy74ii-51" value="Productivity" style="html=1;dropTarget=0;" vertex="1" parent="WIyWlLk6GJQsqaUBKTNV-1">
          <mxGeometry x="350" y="1390" width="180" height="90" as="geometry" />
        </mxCell>
        <mxCell id="XQnneST7vK9ARWgy74ii-52" value="Completed Tasks" style="html=1;dropTarget=0;" vertex="1" parent="WIyWlLk6GJQsqaUBKTNV-1">
          <mxGeometry x="350" y="1790" width="180" height="90" as="geometry" />
        </mxCell>
      </root>
    </mxGraphModel>
  </diagram>
</mxfile>
